<?xml version="1.0" standalone="no"?><svg xmlns:xlink="http://www.w3.org/1999/xlink" xmlns="http://www.w3.org/2000/svg" viewBox="0 0 1000 562.5042485215145" preserveAspectRatio="xMaxYMax slice"><g transform="scale(0.8497043029025898)"><rect x="0" y="0" width="1176.888888888889" height="662" fill="#ffffff"/><g transform="translate(441.33,73.56) scale(3.678) rotate(0)"><path d="M10 0L20 10L10 20L0 10L10 0Z" fill="#dddddd"/></g><g transform="translate(514.89,73.56) scale(3.678) rotate(0)"><path d="M13 0H20V7L7 20H0V13L13 0Z" fill="#e6e6e6"/></g><g transform="translate(1029.78,73.56) scale(3.678) rotate(0)"><path d="M10 0L20 10L10 20L0 10L10 0Z" fill="#242424"/></g><rect x="73.55555555555556" y="147.11111111111111" width="73.55555555555556" height="73.55555555555556" fill="#ffffff"/><g transform="translate(73.56,147.11) scale(1.839) rotate(0)"><path d="M10 0L20 10L10 20L0 10L10 0Z" fill="#f5f5f5"/></g><g transform="translate(110.33,183.89) scale(1.839) rotate(0)"><path d="M13 0H20V7L7 20H0V13L13 0Z" fill="#6e6e6e"/></g><rect x="147.11111111111111" y="147.11111111111111" width="73.55555555555556" height="73.55555555555556" fill="#ffffff"/><rect x="367.77777777777777" y="147.11111111111111" width="73.55555555555556" height="73.55555555555556" fill="#ffffff"/><g transform="translate(404.56,183.89) scale(1.839) rotate(0)"><path d="M10 0L20 10L10 20L0 10L10 0Z" fill="#dedede"/></g><rect x="809.1111111111111" y="147.11111111111111" width="73.55555555555556" height="73.55555555555556" fill="#ffffff"/><g transform="translate(845.89,183.89) scale(1.839) rotate(0)"><path d="M10 0L20 10L10 20L0 10L10 0Z" fill="#ececec"/></g><rect x="882.6666666666667" y="147.11111111111111" width="73.55555555555556" height="73.55555555555556" fill="#ffffff"/><g transform="translate(882.67,147.11) scale(1.839) rotate(0)"><path d="M10 0L20 10L10 20L0 10L10 0Z" fill="#333333"/></g><g transform="translate(882.67,183.89) scale(1.839) rotate(0)"><path d="M13 0H20V7L7 20H0V13L13 0Z" fill="#595959"/></g><rect x="1103.3333333333333" y="147.11111111111111" width="73.55555555555556" height="73.55555555555556" fill="#ffffff"/><g transform="translate(1103.33,183.89) scale(1.839) rotate(0)"><path d="M10 0L20 10L10 20L0 10L10 0Z" fill="#fefefe"/></g><rect x="0" y="220.66666666666669" width="73.55555555555556" height="73.55555555555556" fill="#ffffff"/><g transform="translate(36.78,220.67) scale(1.839) rotate(0)"><path d="M13 0H20V7L7 20H0V13L13 0Z" fill="#454545"/></g><g transform="translate(0,257.44) scale(1.839) rotate(0)"><path d="M13 0H20V7L7 20H0V13L13 0Z" fill="#dedede"/></g><g transform="translate(36.78,257.44) scale(1.839) rotate(0)"><path d="M13 0H20V7L7 20H0V13L13 0Z" fill="#e1e1e1"/></g><rect x="367.77777777777777" y="220.66666666666669" width="73.55555555555556" height="73.55555555555556" fill="#ffffff"/><g transform="translate(404.56,220.67) scale(1.839) rotate(0)"><path d="M10 0L20 10L10 20L0 10L10 0Z" fill="#f5f5f5"/></g><rect x="441.33333333333337" y="220.66666666666669" width="73.55555555555556" height="73.55555555555556" fill="#ffffff"/><g transform="translate(441.33,257.44) scale(1.839) rotate(0)"><path d="M13 0H20V7L7 20H0V13L13 0Z" fill="#4f4f4f"/></g><g transform="translate(478.11,257.44) scale(1.839) rotate(0)"><path d="M13 0H20V7L7 20H0V13L13 0Z" fill="#424242"/></g><rect x="735.5555555555555" y="220.66666666666669" width="73.55555555555556" height="73.55555555555556" fill="#ffffff"/><g transform="translate(735.56,220.67) scale(1.839) rotate(0)"><path d="M13 0H20V7L7 20H0V13L13 0Z" fill="#bfbfbf"/></g><g transform="translate(735.56,257.44) scale(1.839) rotate(0)"><path d="M10 0L20 10L10 20L0 10L10 0Z" fill="#dedede"/></g><rect x="1103.3333333333333" y="220.66666666666669" width="73.55555555555556" height="73.55555555555556" fill="#ffffff"/><g transform="translate(1103.33,220.67) scale(1.839) rotate(0)"><path d="M10 0L20 10L10 20L0 10L10 0Z" fill="#eeeeee"/></g><g transform="translate(1103.33,257.44) scale(1.839) rotate(0)"><path d="M10 0L20 10L10 20L0 10L10 0Z" fill="#8b8b8b"/></g><g transform="translate(1140.11,257.44) scale(1.839) rotate(0)"><path d="M10 0L20 10L10 20L0 10L10 0Z" fill="#4a4a4a"/></g><g transform="translate(0,294.22) scale(3.678) rotate(0)"><path d="M13 0H20V7L7 20H0V13L13 0Z" fill="#818181"/></g><g transform="translate(147.11,294.22) scale(3.678) rotate(0)"><path d="M13 0H20V7L7 20H0V13L13 0Z" fill="#5e5e5e"/></g><rect x="294.22222222222223" y="294.22222222222223" width="73.55555555555556" height="73.55555555555556" fill="#ffffff"/><g transform="translate(331,294.22) scale(1.839) rotate(0)"><path d="M10 0L20 10L10 20L0 10L10 0Z" fill="#787878"/></g><g transform="translate(331,331) scale(1.839) rotate(0)"><path d="M13 0H20V7L7 20H0V13L13 0Z" fill="#f5f5f5"/></g><g transform="translate(367.78,294.22) scale(3.678) rotate(0)"><path d="M10 0L20 10L10 20L0 10L10 0Z" fill="#e4e4e4"/></g><g transform="translate(441.33,294.22) scale(3.678) rotate(0)"><path d="M13 0H20V7L7 20H0V13L13 0Z" fill="#f7f7f7"/></g><rect x="588.4444444444445" y="294.22222222222223" width="73.55555555555556" height="73.55555555555556" fill="#ffffff"/><g transform="translate(625.22,294.22) scale(1.839) rotate(0)"><path d="M13 0H20V7L7 20H0V13L13 0Z" fill="#e3e3e3"/></g><g transform="translate(588.44,331) scale(1.839) rotate(0)"><path d="M10 0L20 10L10 20L0 10L10 0Z" fill="#e0e0e0"/></g><g transform="translate(662,294.22) scale(3.678) rotate(0)"><path d="M10 0L20 10L10 20L0 10L10 0Z" fill="#e3e3e3"/></g><g transform="translate(735.56,294.22) scale(3.678) rotate(0)"><path d="M10 0L20 10L10 20L0 10L10 0Z" fill="#ebebeb"/></g><g transform="translate(809.11,294.22) scale(3.678) rotate(0)"><path d="M13 0H20V7L7 20H0V13L13 0Z" fill="#717171"/></g><g transform="translate(882.67,294.22) scale(3.678) rotate(0)"><path d="M10 0L20 10L10 20L0 10L10 0Z" fill="#d7d7d7"/></g><g transform="translate(956.22,294.22) scale(3.678) rotate(0)"><path d="M10 0L20 10L10 20L0 10L10 0Z" fill="#cbcbcb"/></g><g transform="translate(73.56,367.78) scale(3.678) rotate(0)"><path d="M13 0H20V7L7 20H0V13L13 0Z" fill="#7d7d7d"/></g><g transform="translate(147.11,367.78) scale(3.678) rotate(0)"><path d="M13 0H20V7L7 20H0V13L13 0Z" fill="#d5d5d5"/></g><g transform="translate(220.67,367.78) scale(3.678) rotate(0)"><path d="M10 0L20 10L10 20L0 10L10 0Z" fill="#898989"/></g><g transform="translate(294.22,367.78) scale(3.678) rotate(0)"><path d="M13 0H20V7L7 20H0V13L13 0Z" fill="#3c3c3c"/></g><rect x="441.33333333333337" y="367.77777777777777" width="73.55555555555556" height="73.55555555555556" fill="#ffffff"/><g transform="translate(478.11,367.78) scale(1.839) rotate(0)"><path d="M10 0L20 10L10 20L0 10L10 0Z" fill="#838383"/></g><g transform="translate(441.33,404.56) scale(1.839) rotate(0)"><path d="M10 0L20 10L10 20L0 10L10 0Z" fill="#909090"/></g><g transform="translate(478.11,404.56) scale(1.839) rotate(0)"><path d="M13 0H20V7L7 20H0V13L13 0Z" fill="#d4d4d4"/></g><g transform="translate(735.56,367.78) scale(3.678) rotate(0)"><path d="M10 0L20 10L10 20L0 10L10 0Z" fill="#787878"/></g><rect x="809.1111111111111" y="367.77777777777777" width="73.55555555555556" height="73.55555555555556" fill="#ffffff"/><g transform="translate(809.11,367.78) scale(1.839) rotate(0)"><path d="M13 0H20V7L7 20H0V13L13 0Z" fill="#e5e5e5"/></g><g transform="translate(845.89,367.78) scale(1.839) rotate(0)"><path d="M13 0H20V7L7 20H0V13L13 0Z" fill="#efefef"/></g><g transform="translate(845.89,404.56) scale(1.839) rotate(0)"><path d="M13 0H20V7L7 20H0V13L13 0Z" fill="#696969"/></g><rect x="882.6666666666667" y="367.77777777777777" width="73.55555555555556" height="73.55555555555556" fill="#ffffff"/><g transform="translate(882.67,367.78) scale(1.839) rotate(0)"><path d="M13 0H20V7L7 20H0V13L13 0Z" fill="#808080"/></g><g transform="translate(919.44,404.56) scale(1.839) rotate(0)"><path d="M13 0H20V7L7 20H0V13L13 0Z" fill="#898989"/></g><rect x="0" y="441.33333333333337" width="73.55555555555556" height="73.55555555555556" fill="#ffffff"/><g transform="translate(0,441.33) scale(1.839) rotate(0)"><path d="M13 0H20V7L7 20H0V13L13 0Z" fill="#f4f4f4"/></g><g transform="translate(36.78,441.33) scale(1.839) rotate(0)"><path d="M10 0L20 10L10 20L0 10L10 0Z" fill="#b6b6b6"/></g><g transform="translate(0,478.11) scale(1.839) rotate(0)"><path d="M10 0L20 10L10 20L0 10L10 0Z" fill="#efefef"/></g><g transform="translate(36.78,478.11) scale(1.839) rotate(0)"><path d="M10 0L20 10L10 20L0 10L10 0Z" fill="#f9f9f9"/></g><rect x="73.55555555555556" y="441.33333333333337" width="73.55555555555556" height="73.55555555555556" fill="#ffffff"/><g transform="translate(73.56,441.33) scale(1.839) rotate(0)"><path d="M10 0L20 10L10 20L0 10L10 0Z" fill="#878787"/></g><g transform="translate(110.33,441.33) scale(1.839) rotate(0)"><path d="M13 0H20V7L7 20H0V13L13 0Z" fill="#a3a3a3"/></g><g transform="translate(73.56,478.11) scale(1.839) rotate(0)"><path d="M10 0L20 10L10 20L0 10L10 0Z" fill="#4b4b4b"/></g><g transform="translate(110.33,478.11) scale(1.839) rotate(0)"><path d="M13 0H20V7L7 20H0V13L13 0Z" fill="#d7d7d7"/></g><rect x="147.11111111111111" y="441.33333333333337" width="73.55555555555556" height="73.55555555555556" fill="#ffffff"/><g transform="translate(147.11,441.33) scale(1.839) rotate(0)"><path d="M10 0L20 10L10 20L0 10L10 0Z" fill="#dadada"/></g><g transform="translate(147.11,478.11) scale(1.839) rotate(0)"><path d="M10 0L20 10L10 20L0 10L10 0Z" fill="#b4b4b4"/></g><g transform="translate(367.78,441.33) scale(3.678) rotate(0)"><path d="M13 0H20V7L7 20H0V13L13 0Z" fill="#f9f9f9"/></g><g transform="translate(441.33,441.33) scale(3.678) rotate(0)"><path d="M10 0L20 10L10 20L0 10L10 0Z" fill="#6e6e6e"/></g><rect x="514.8888888888889" y="441.33333333333337" width="73.55555555555556" height="73.55555555555556" fill="#ffffff"/><g transform="translate(514.89,441.33) scale(1.839) rotate(0)"><path d="M13 0H20V7L7 20H0V13L13 0Z" fill="#e3e3e3"/></g><g transform="translate(551.67,441.33) scale(1.839) rotate(0)"><path d="M10 0L20 10L10 20L0 10L10 0Z" fill="#f2f2f2"/></g><g transform="translate(551.67,478.11) scale(1.839) rotate(0)"><path d="M10 0L20 10L10 20L0 10L10 0Z" fill="#d2d2d2"/></g><g transform="translate(588.44,441.33) scale(3.678) rotate(0)"><path d="M10 0L20 10L10 20L0 10L10 0Z" fill="#818181"/></g><g transform="translate(882.67,441.33) scale(3.678) rotate(0)"><path d="M13 0H20V7L7 20H0V13L13 0Z" fill="#f8f8f8"/></g><g transform="translate(956.22,441.33) scale(3.678) rotate(0)"><path d="M10 0L20 10L10 20L0 10L10 0Z" fill="#e4e4e4"/></g><g transform="translate(1029.78,441.33) scale(3.678) rotate(0)"><path d="M13 0H20V7L7 20H0V13L13 0Z" fill="#c9c9c9"/></g><g transform="translate(1103.33,441.33) scale(3.678) rotate(0)"><path d="M13 0H20V7L7 20H0V13L13 0Z" fill="#d9d9d9"/></g><g transform="translate(0,514.89) scale(3.678) rotate(0)"><path d="M10 0L20 10L10 20L0 10L10 0Z" fill="#e6e6e6"/></g><g transform="translate(73.56,514.89) scale(3.678) rotate(0)"><path d="M10 0L20 10L10 20L0 10L10 0Z" fill="#878787"/></g><rect x="147.11111111111111" y="514.8888888888889" width="73.55555555555556" height="73.55555555555556" fill="#ffffff"/><g transform="translate(183.89,514.89) scale(1.839) rotate(0)"><path d="M13 0H20V7L7 20H0V13L13 0Z" fill="#f0f0f0"/></g><g transform="translate(147.11,551.67) scale(1.839) rotate(0)"><path d="M13 0H20V7L7 20H0V13L13 0Z" fill="#555555"/></g><g transform="translate(183.89,551.67) scale(1.839) rotate(0)"><path d="M10 0L20 10L10 20L0 10L10 0Z" fill="#fdfdfd"/></g><rect x="220.66666666666669" y="514.8888888888889" width="73.55555555555556" height="73.55555555555556" fill="#ffffff"/><g transform="translate(257.44,514.89) scale(1.839) rotate(0)"><path d="M10 0L20 10L10 20L0 10L10 0Z" fill="#cccccc"/></g><g transform="translate(220.67,551.67) scale(1.839) rotate(0)"><path d="M13 0H20V7L7 20H0V13L13 0Z" fill="#e6e6e6"/></g><g transform="translate(257.44,551.67) scale(1.839) rotate(0)"><path d="M13 0H20V7L7 20H0V13L13 0Z" fill="#f1f1f1"/></g><g transform="translate(367.78,514.89) scale(3.678) rotate(0)"><path d="M13 0H20V7L7 20H0V13L13 0Z" fill="#a0a0a0"/></g><rect x="441.33333333333337" y="514.8888888888889" width="73.55555555555556" height="73.55555555555556" fill="#ffffff"/><g transform="translate(441.33,514.89) scale(1.839) rotate(0)"><path d="M13 0H20V7L7 20H0V13L13 0Z" fill="#fafafa"/></g><g transform="translate(478.11,514.89) scale(1.839) rotate(0)"><path d="M13 0H20V7L7 20H0V13L13 0Z" fill="#afafaf"/></g><g transform="translate(441.33,551.67) scale(1.839) rotate(0)"><path d="M13 0H20V7L7 20H0V13L13 0Z" fill="#dddddd"/></g><g transform="translate(478.11,551.67) scale(1.839) rotate(0)"><path d="M10 0L20 10L10 20L0 10L10 0Z" fill="#292929"/></g><g transform="translate(514.89,514.89) scale(3.678) rotate(0)"><path d="M13 0H20V7L7 20H0V13L13 0Z" fill="#242424"/></g><g transform="translate(588.44,514.89) scale(3.678) rotate(0)"><path d="M13 0H20V7L7 20H0V13L13 0Z" fill="#999999"/></g><rect x="662" y="514.8888888888889" width="73.55555555555556" height="73.55555555555556" fill="#ffffff"/><g transform="translate(662,514.89) scale(1.839) rotate(0)"><path d="M13 0H20V7L7 20H0V13L13 0Z" fill="#f6f6f6"/></g><g transform="translate(698.78,514.89) scale(1.839) rotate(0)"><path d="M13 0H20V7L7 20H0V13L13 0Z" fill="#5f5f5f"/></g><g transform="translate(662,551.67) scale(1.839) rotate(0)"><path d="M10 0L20 10L10 20L0 10L10 0Z" fill="#d6d6d6"/></g><g transform="translate(735.56,514.89) scale(3.678) rotate(0)"><path d="M13 0H20V7L7 20H0V13L13 0Z" fill="#212121"/></g><g transform="translate(809.11,514.89) scale(3.678) rotate(0)"><path d="M13 0H20V7L7 20H0V13L13 0Z" fill="#e5e5e5"/></g><rect x="882.6666666666667" y="514.8888888888889" width="73.55555555555556" height="73.55555555555556" fill="#ffffff"/><g transform="translate(882.67,514.89) scale(1.839) rotate(0)"><path d="M13 0H20V7L7 20H0V13L13 0Z" fill="#e6e6e6"/></g><g transform="translate(919.44,514.89) scale(1.839) rotate(0)"><path d="M13 0H20V7L7 20H0V13L13 0Z" fill="#dcdcdc"/></g><g transform="translate(882.67,551.67) scale(1.839) rotate(0)"><path d="M10 0L20 10L10 20L0 10L10 0Z" fill="#939393"/></g><g transform="translate(919.44,551.67) scale(1.839) rotate(0)"><path d="M13 0H20V7L7 20H0V13L13 0Z" fill="#bababa"/></g><g transform="translate(956.22,514.89) scale(3.678) rotate(0)"><path d="M13 0H20V7L7 20H0V13L13 0Z" fill="#c9c9c9"/></g><rect x="1029.7777777777778" y="514.8888888888889" width="73.55555555555556" height="73.55555555555556" fill="#ffffff"/><g transform="translate(1029.78,514.89) scale(1.839) rotate(0)"><path d="M10 0L20 10L10 20L0 10L10 0Z" fill="#818181"/></g><g transform="translate(1066.56,514.89) scale(1.839) rotate(0)"><path d="M13 0H20V7L7 20H0V13L13 0Z" fill="#fefefe"/></g><g transform="translate(1029.78,551.67) scale(1.839) rotate(0)"><path d="M10 0L20 10L10 20L0 10L10 0Z" fill="#b5b5b5"/></g><g transform="translate(1066.56,551.67) scale(1.839) rotate(0)"><path d="M10 0L20 10L10 20L0 10L10 0Z" fill="#777777"/></g><g transform="translate(1103.33,514.89) scale(3.678) rotate(0)"><path d="M10 0L20 10L10 20L0 10L10 0Z" fill="#4e4e4e"/></g><g transform="translate(0,588.44) scale(3.678) rotate(0)"><path d="M10 0L20 10L10 20L0 10L10 0Z" fill="#dddddd"/></g><g transform="translate(73.56,588.44) scale(3.678) rotate(0)"><path d="M13 0H20V7L7 20H0V13L13 0Z" fill="#efefef"/></g><rect x="147.11111111111111" y="588.4444444444445" width="73.55555555555556" height="73.55555555555556" fill="#ffffff"/><g transform="translate(147.11,588.44) scale(1.839) rotate(0)"><path d="M13 0H20V7L7 20H0V13L13 0Z" fill="#1f1f1f"/></g><g transform="translate(183.89,588.44) scale(1.839) rotate(0)"><path d="M10 0L20 10L10 20L0 10L10 0Z" fill="#dbdbdb"/></g><g transform="translate(147.11,625.22) scale(1.839) rotate(0)"><path d="M13 0H20V7L7 20H0V13L13 0Z" fill="#727272"/></g><g transform="translate(183.89,625.22) scale(1.839) rotate(0)"><path d="M13 0H20V7L7 20H0V13L13 0Z" fill="#f1f1f1"/></g><rect x="220.66666666666669" y="588.4444444444445" width="73.55555555555556" height="73.55555555555556" fill="#ffffff"/><g transform="translate(220.67,588.44) scale(1.839) rotate(0)"><path d="M13 0H20V7L7 20H0V13L13 0Z" fill="#d9d9d9"/></g><g transform="translate(257.44,588.44) scale(1.839) rotate(0)"><path d="M10 0L20 10L10 20L0 10L10 0Z" fill="#646464"/></g><g transform="translate(220.67,625.22) scale(1.839) rotate(0)"><path d="M10 0L20 10L10 20L0 10L10 0Z" fill="#808080"/></g><g transform="translate(257.44,625.22) scale(1.839) rotate(0)"><path d="M13 0H20V7L7 20H0V13L13 0Z" fill="#d8d8d8"/></g><g transform="translate(294.22,588.44) scale(3.678) rotate(0)"><path d="M13 0H20V7L7 20H0V13L13 0Z" fill="#d6d6d6"/></g><rect x="367.77777777777777" y="588.4444444444445" width="73.55555555555556" height="73.55555555555556" fill="#ffffff"/><g transform="translate(367.78,588.44) scale(1.839) rotate(0)"><path d="M10 0L20 10L10 20L0 10L10 0Z" fill="#c8c8c8"/></g><g transform="translate(404.56,588.44) scale(1.839) rotate(0)"><path d="M10 0L20 10L10 20L0 10L10 0Z" fill="#343434"/></g><g transform="translate(367.78,625.22) scale(1.839) rotate(0)"><path d="M10 0L20 10L10 20L0 10L10 0Z" fill="#eaeaea"/></g><g transform="translate(404.56,625.22) scale(1.839) rotate(0)"><path d="M10 0L20 10L10 20L0 10L10 0Z" fill="#a1a1a1"/></g><g transform="translate(441.33,588.44) scale(3.678) rotate(0)"><path d="M10 0L20 10L10 20L0 10L10 0Z" fill="#383838"/></g><rect x="514.8888888888889" y="588.4444444444445" width="73.55555555555556" height="73.55555555555556" fill="#ffffff"/><g transform="translate(514.89,588.44) scale(1.839) rotate(0)"><path d="M10 0L20 10L10 20L0 10L10 0Z" fill="#dadada"/></g><g transform="translate(551.67,588.44) scale(1.839) rotate(0)"><path d="M13 0H20V7L7 20H0V13L13 0Z" fill="#a7a7a7"/></g><g transform="translate(514.89,625.22) scale(1.839) rotate(0)"><path d="M10 0L20 10L10 20L0 10L10 0Z" fill="#343434"/></g><g transform="translate(551.67,625.22) scale(1.839) rotate(0)"><path d="M13 0H20V7L7 20H0V13L13 0Z" fill="#cfcfcf"/></g><g transform="translate(588.44,588.44) scale(3.678) rotate(0)"><path d="M10 0L20 10L10 20L0 10L10 0Z" fill="#202020"/></g><rect x="662" y="588.4444444444445" width="73.55555555555556" height="73.55555555555556" fill="#ffffff"/><g transform="translate(662,588.44) scale(1.839) rotate(0)"><path d="M10 0L20 10L10 20L0 10L10 0Z" fill="#e8e8e8"/></g><g transform="translate(698.78,588.44) scale(1.839) rotate(0)"><path d="M13 0H20V7L7 20H0V13L13 0Z" fill="#f3f3f3"/></g><g transform="translate(662,625.22) scale(1.839) rotate(0)"><path d="M13 0H20V7L7 20H0V13L13 0Z" fill="#f0f0f0"/></g><g transform="translate(698.78,625.22) scale(1.839) rotate(0)"><path d="M10 0L20 10L10 20L0 10L10 0Z" fill="#252525"/></g><g transform="translate(735.56,588.44) scale(3.678) rotate(0)"><path d="M13 0H20V7L7 20H0V13L13 0Z" fill="#ececec"/></g><g transform="translate(809.11,588.44) scale(3.678) rotate(0)"><path d="M10 0L20 10L10 20L0 10L10 0Z" fill="#dcdcdc"/></g><g transform="translate(882.67,588.44) scale(3.678) rotate(0)"><path d="M13 0H20V7L7 20H0V13L13 0Z" fill="#fefefe"/></g><g transform="translate(956.22,588.44) scale(3.678) rotate(0)"><path d="M13 0H20V7L7 20H0V13L13 0Z" fill="#2a2a2a"/></g><rect x="1029.7777777777778" y="588.4444444444445" width="73.55555555555556" height="73.55555555555556" fill="#ffffff"/><g transform="translate(1029.78,588.44) scale(1.839) rotate(0)"><path d="M10 0L20 10L10 20L0 10L10 0Z" fill="#f1f1f1"/></g><g transform="translate(1066.56,588.44) scale(1.839) rotate(0)"><path d="M10 0L20 10L10 20L0 10L10 0Z" fill="#d2d2d2"/></g><g transform="translate(1029.78,625.22) scale(1.839) rotate(0)"><path d="M10 0L20 10L10 20L0 10L10 0Z" fill="#f1f1f1"/></g><g transform="translate(1066.56,625.22) scale(1.839) rotate(0)"><path d="M10 0L20 10L10 20L0 10L10 0Z" fill="#f9f9f9"/></g><rect x="1103.3333333333333" y="588.4444444444445" width="73.55555555555556" height="73.55555555555556" fill="#ffffff"/><g transform="translate(1103.33,588.44) scale(1.839) rotate(0)"><path d="M13 0H20V7L7 20H0V13L13 0Z" fill="#e8e8e8"/></g><g transform="translate(1140.11,588.44) scale(1.839) rotate(0)"><path d="M13 0H20V7L7 20H0V13L13 0Z" fill="#f5f5f5"/></g><g transform="translate(1103.33,625.22) scale(1.839) rotate(0)"><path d="M10 0L20 10L10 20L0 10L10 0Z" fill="#2a2a2a"/></g><g transform="translate(1140.11,625.22) scale(1.839) rotate(0)"><path d="M10 0L20 10L10 20L0 10L10 0Z" fill="#fbfbfb"/></g></g></svg>